<svg xmlns="http://www.w3.org/2000/svg" width="900" height="520" viewBox="0 0 900 520">
<rect width="100%" height="100%" fill="white"/><text x="55" y="20" font-size="16">remora loss (gpu-smoke-remora)</text>
<line x1="55" y1="55" x2="55" y2="465" stroke="#555"/><line x1="55" y1="465" x2="845" y2="465" stroke="#555"/>
<polyline fill="none" stroke="#0b6e4f" stroke-width="2" points="55.00,55.00 87.92,111.81 120.83,164.65 153.75,196.32 186.67,218.54 219.58,231.48 252.50,248.08 285.42,268.77 318.33,275.02 351.25,293.84 384.17,286.37 417.08,302.67 450.00,313.70 482.92,326.51 515.83,357.82 548.75,348.87 581.67,366.78 614.58,397.86 647.50,387.41 680.42,413.34 713.33,401.69 746.25,425.44 779.17,444.73 812.08,465.00 845.00,459.99"/><text x="55" y="30" fill="#0b6e4f" font-size="14">train loss</text><polyline fill="none" stroke="#b23a48" stroke-width="2" points="55.00,55.00 213.00,198.29 371.00,267.92 529.00,340.40 687.00,407.91 845.00,465.00"/><text x="225" y="30" fill="#b23a48" font-size="14">heldout loss</text>
</svg>